<?xml version="1.0" encoding="utf-8"?>
<!-- Generator: Adobe Illustrator 27.2.0, SVG Export Plug-In . SVG Version: 6.00 Build 0)  -->
<svg version="1.1" id="Capa_1" xmlns="http://www.w3.org/2000/svg" xmlns:xlink="http://www.w3.org/1999/xlink" x="0px" y="0px"
	 viewBox="0 0 187 84" style="enable-background:new 0 0 187 84;" xml:space="preserve">
<style type="text/css">
	.st0{fill:#00A443;}
	.st1{fill:#FF9C1A;}
	.st2{fill:#0DA9FF;}
	.st3{fill:none;}
</style>
<g>
	<path class="st0" d="M57.1,55.8c-0.8-0.7-1.9-1-3.3-1h-4.4v12.3h1.6v-4.4h2.9c0.8,0,1.6-0.1,2.4-0.5c0.6-0.3,1.2-0.8,1.6-1.4
		c0.4-0.6,0.6-1.4,0.5-2.1C58.3,57.5,57.9,56.5,57.1,55.8z M55.9,60.6c-0.5,0.4-1.3,0.6-2.2,0.6h-2.7v-5h2.7c1,0,1.7,0.2,2.2,0.6
		s0.8,1,0.8,1.9C56.7,59.6,56.4,60.2,55.9,60.6z"/>
	<path class="st0" d="M65.1,58.6C64.5,58.2,63.8,58,63,58c-0.6,0-1.2,0.1-1.7,0.3c-0.5,0.2-1,0.5-1.3,0.9c-0.4,0.4-0.7,0.9-0.9,1.4
		c-0.2,0.6-0.3,1.2-0.3,1.9c0,0.8,0.2,1.7,0.6,2.4c0.4,0.7,0.9,1.2,1.5,1.6c0.7,0.4,1.4,0.6,2.2,0.6c0.5,0,1-0.1,1.5-0.2
		c0.5-0.1,0.9-0.4,1.3-0.7c0.4-0.4,0.8-0.8,1.1-1.3l-1.1-0.7c-0.2,0.3-0.4,0.6-0.7,0.9c-0.3,0.2-0.6,0.4-0.9,0.5
		c-0.3,0.1-0.7,0.2-1,0.2c-0.5,0-1-0.1-1.4-0.4c-0.4-0.3-0.8-0.6-1-1.1c-0.2-0.4-0.3-0.9-0.4-1.4h6.7c0-0.1,0-0.1,0-0.2v-0.2
		c0-0.8-0.2-1.6-0.5-2.4C66.2,59.5,65.7,59,65.1,58.6z M61,60.2c0.2-0.3,0.5-0.5,0.8-0.7c0.4-0.2,0.7-0.2,1.1-0.2
		c0.7,0,1.4,0.3,1.8,0.8c0.3,0.4,0.6,1,0.7,1.7h-5.1c0-0.2,0.1-0.4,0.1-0.6C60.6,60.9,60.8,60.5,61,60.2L61,60.2z"/>
	<path class="st0" d="M71,58.5c-0.5,0.3-0.8,0.8-1,1.3v-1.5h-1.5v8.9H70v-4.7c0-0.8,0.2-1.5,0.6-2c0.4-0.5,1-0.7,1.6-0.7H73V58h-0.5
		C71.9,58,71.4,58.2,71,58.5z"/>
	<path class="st0" d="M79.9,58.5c-0.5-0.3-1.1-0.4-1.7-0.4c-0.6,0-1.2,0.2-1.7,0.5c-0.4,0.3-0.8,0.6-1,1.1v-1.4H74v8.9h1.5v-5.3
		c0-0.8,0.2-1.3,0.7-1.8s1-0.6,1.7-0.6c0.6,0,1.1,0.2,1.5,0.6c0.4,0.4,0.6,1,0.6,1.7v5.3h1.5v-5.5c0-0.6-0.1-1.3-0.4-1.8
		C80.8,59.2,80.4,58.7,79.9,58.5z"/>
	<path class="st0" d="M89.4,58.8c-0.4-0.3-0.8-0.5-1.3-0.6c-0.5-0.1-1-0.2-1.5-0.2c-0.8,0-1.5,0.2-2.1,0.5c-0.6,0.4-1.1,0.9-1.4,1.6
		l1.2,0.7c0.2-0.4,0.5-0.8,0.9-1.1c0.4-0.3,0.9-0.4,1.5-0.4c0.4,0,0.8,0.1,1.2,0.2c0.4,0.1,0.7,0.4,0.9,0.7c0.2,0.3,0.3,0.8,0.3,1.3
		v1.1l-0.3-0.3c-0.6-0.5-1.4-0.7-2.4-0.7c-0.6,0-1.2,0.1-1.8,0.3c-0.5,0.2-1,0.5-1.3,0.9c-0.3,0.4-0.5,0.9-0.5,1.5
		c0,0.5,0.2,1.1,0.5,1.5c0.3,0.4,0.8,0.7,1.3,0.9c0.6,0.2,1.2,0.3,1.8,0.3c1.1,0,1.9-0.3,2.5-0.7c0.1-0.1,0.2-0.2,0.3-0.3v0.9h1.5
		v-5.5c0-0.5-0.1-1.1-0.3-1.6C90,59.5,89.7,59.1,89.4,58.8z M88.4,65.7c-0.5,0.3-1.1,0.4-1.7,0.4c-0.6,0-1.2-0.1-1.7-0.4
		c-0.4-0.2-0.7-0.7-0.7-1.1c0-0.5,0.3-1,0.7-1.2c0.5-0.3,1.1-0.4,1.7-0.4c0.6,0,1.2,0.1,1.7,0.4c0.4,0.2,0.7,0.7,0.7,1.1
		C89.1,65,88.9,65.4,88.4,65.7L88.4,65.7z"/>
	<path class="st0" d="M103.3,58.5c-0.5-0.3-1.1-0.4-1.6-0.4c-0.6,0-1.2,0.2-1.7,0.5c-0.4,0.3-0.8,0.7-1,1.2c-0.5-1-1.5-1.7-2.7-1.7
		c-0.6,0-1.1,0.1-1.6,0.4c-0.4,0.2-0.7,0.6-0.9,1v-1.3h-1.5v8.9h1.5v-5.4c0-0.4,0.1-0.8,0.3-1.2c0.2-0.3,0.4-0.6,0.7-0.8
		c0.3-0.2,0.7-0.3,1.1-0.3c0.5,0,1,0.2,1.3,0.6c0.3,0.4,0.5,1,0.5,1.7v5.4h1.5v-5.4c0-0.7,0.2-1.3,0.6-1.7c0.4-0.4,0.9-0.6,1.5-0.6
		c0.5,0,1,0.2,1.3,0.6c0.3,0.4,0.5,1,0.5,1.7v5.4h1.5v-5.7c0-0.6-0.1-1.2-0.4-1.8C104.1,59.1,103.7,58.7,103.3,58.5z"/>
	<path class="st0" d="M113.3,58.6c-0.6-0.4-1.4-0.6-2.1-0.6c-0.6,0-1.2,0.1-1.7,0.4c-0.5,0.3-0.9,0.6-1.2,1
		c-0.1,0.1-0.2,0.3-0.3,0.4v-5.1h-1.5v12.3h1.5v-1.7l0.2,0.4c0.3,0.4,0.7,0.8,1.2,1c0.5,0.3,1.1,0.4,1.7,0.4c0.6,0,1.1-0.1,1.6-0.3
		c0.5-0.2,0.9-0.5,1.3-0.9c0.4-0.4,0.7-0.9,0.9-1.5c0.2-0.6,0.3-1.2,0.3-1.9c0-0.8-0.2-1.6-0.5-2.4C114.4,59.6,113.9,59,113.3,58.6z
		 M113.5,64c-0.1,0.4-0.3,0.7-0.6,1c-0.3,0.3-0.6,0.5-0.9,0.6c-0.4,0.2-0.8,0.2-1.1,0.2c-0.8,0-1.5-0.3-2.1-0.8
		c-0.5-0.6-0.8-1.4-0.8-2.4c0-0.5,0.1-0.9,0.2-1.3c0.1-0.4,0.3-0.7,0.6-1c0.2-0.3,0.6-0.5,0.9-0.6c0.4-0.1,0.8-0.2,1.1-0.2
		c0.8,0,1.5,0.3,2,0.8c0.5,0.6,0.8,1.4,0.8,2.4C113.7,63.1,113.7,63.5,113.5,64L113.5,64z"/>
	<path class="st0" d="M122.6,63.4c0,0.8-0.2,1.5-0.6,1.9c-0.9,0.8-2.3,0.8-3.3,0c-0.4-0.4-0.6-1-0.6-1.9v-5.2h-1.5v5.3
		c0,0.7,0.1,1.4,0.5,2c0.3,0.5,0.8,1,1.4,1.3c1.2,0.6,2.6,0.6,3.9,0c0.6-0.3,1-0.7,1.3-1.3c0.3-0.6,0.5-1.3,0.5-2v-5.3h-1.5V63.4z"
		/>
	<path class="st0" d="M127.8,60.2c0.2-0.3,0.6-0.5,0.9-0.6c0.3-0.1,0.7-0.2,1.1-0.2c0.6,0,1.1,0.1,1.6,0.4c0.5,0.3,0.8,0.8,1.1,1.5
		l1.3-0.6c-0.4-1.1-1.3-2-2.4-2.4c-0.5-0.2-1.1-0.2-1.6-0.2c-0.6,0-1.2,0.1-1.7,0.3c-0.5,0.2-1,0.5-1.4,0.9
		c-0.4,0.4-0.7,0.9-0.9,1.5c-0.2,0.6-0.3,1.2-0.3,1.8c0,0.8,0.2,1.7,0.6,2.4c0.4,0.7,0.9,1.2,1.6,1.6c0.7,0.4,1.4,0.6,2.2,0.6
		c0.5,0,1.1-0.1,1.6-0.2c0.5-0.2,1-0.5,1.4-0.8c0.4-0.4,0.8-1,1-1.6l-1.3-0.6c-0.3,0.7-0.6,1.2-1.1,1.5c-0.5,0.3-1.1,0.4-1.6,0.4
		c-0.5,0-1-0.1-1.4-0.4c-0.4-0.3-0.8-0.6-1-1.1c-0.3-0.6-0.4-1.2-0.4-1.8c0-0.5,0.1-0.9,0.2-1.4C127.3,60.9,127.5,60.5,127.8,60.2z"
		/>
	<path class="st0" d="M142.9,60.2c-0.4-0.7-0.9-1.2-1.6-1.6c-0.7-0.4-1.5-0.6-2.3-0.6c-0.6,0-1.2,0.1-1.8,0.3
		c-0.5,0.2-1,0.5-1.4,0.9c-0.4,0.4-0.7,0.9-0.9,1.5c-0.5,1.4-0.4,2.9,0.2,4.3c0.4,0.7,0.9,1.2,1.6,1.6c0.7,0.4,1.5,0.6,2.3,0.6
		c0.6,0,1.2-0.1,1.8-0.3c0.5-0.2,1-0.5,1.4-1c0.4-0.4,0.7-0.9,0.9-1.5c0.2-0.6,0.4-1.2,0.3-1.9C143.5,61.8,143.3,61,142.9,60.2z
		 M141.8,64c-0.1,0.4-0.3,0.7-0.6,1c-0.3,0.3-0.6,0.5-0.9,0.7c-0.4,0.1-0.8,0.2-1.2,0.2c-0.5,0-1-0.1-1.5-0.4
		c-0.4-0.3-0.8-0.7-1-1.1c-0.3-0.5-0.4-1.1-0.4-1.8c0-0.5,0.1-0.9,0.2-1.3c0.1-0.4,0.3-0.7,0.6-1c0.3-0.3,0.6-0.5,0.9-0.6
		c0.4-0.1,0.8-0.2,1.1-0.2c0.5,0,1,0.1,1.5,0.4c0.4,0.3,0.8,0.6,1,1.1c0.3,0.5,0.4,1.1,0.4,1.7C142,63.1,141.9,63.5,141.8,64z"/>
	<path class="st0" d="M63.2,38.4v2.6l-1.5-2.1l-9.6-13h-2.7v20.1h2.9V30.9l1.5,2.1l9.6,13h2.7V25.9h-2.9V38.4z"/>
	<path class="st0" d="M78.5,32c-1-0.6-2.2-1-3.5-0.9c-1,0-1.9,0.2-2.8,0.5c-0.8,0.4-1.6,0.9-2.2,1.5c-0.6,0.7-1.1,1.5-1.4,2.4
		c-0.3,1-0.5,2.1-0.5,3.1c0,1.5,0.3,2.8,0.9,4c0.6,1.1,1.5,2,2.5,2.7c1.1,0.7,2.4,1,3.7,1c0.8,0,1.7-0.1,2.4-0.4
		c0.8-0.2,1.5-0.6,2.2-1.2c0.7-0.6,1.3-1.3,1.7-2.1l-2.2-1.3c-0.3,0.5-0.6,1-1.1,1.5c-0.4,0.4-0.9,0.6-1.4,0.8
		c-0.5,0.2-1.1,0.2-1.7,0.2c-0.8,0-1.5-0.2-2.2-0.6c-0.7-0.4-1.2-1-1.5-1.7c-0.3-0.7-0.5-1.4-0.5-2.2h10.8c0-0.1,0-0.3,0-0.4v-0.4
		c0-1.5-0.3-2.8-0.9-3.9C80.4,33.6,79.6,32.7,78.5,32z M72,34.8c0.3-0.4,0.8-0.8,1.3-1c0.5-0.2,1.1-0.3,1.7-0.3
		c1.1,0,2.1,0.4,2.8,1.3c0.5,0.6,0.9,1.4,1,2.5H71c0-0.3,0.1-0.5,0.2-0.8C71.4,35.8,71.6,35.3,72,34.8L72,34.8z"/>
	<path class="st0" d="M94.1,32c-1.2-0.7-2.5-1-3.8-1c-1,0-2,0.2-2.9,0.5c-1.8,0.7-3.2,2.2-3.9,4c-0.4,1-0.6,2-0.5,3.1
		c0,1.4,0.3,2.7,1,3.9c0.6,1.1,1.5,2,2.6,2.7c1.2,0.7,2.5,1,3.8,1c1,0,2-0.2,2.9-0.6c0.9-0.4,1.7-0.9,2.3-1.6
		c0.7-0.7,1.2-1.5,1.6-2.4c0.4-1,0.6-2,0.5-3.1c0-1.5-0.3-2.8-1-4C96.1,33.6,95.2,32.7,94.1,32z M94.5,40.8
		c-0.2,0.6-0.5,1.1-0.9,1.6c-0.4,0.4-0.9,0.8-1.4,1c-0.6,0.2-1.2,0.4-1.8,0.3c-0.8,0-1.6-0.2-2.3-0.6c-0.7-0.4-1.2-1-1.6-1.7
		c-0.4-0.8-0.6-1.8-0.6-2.7c0-0.7,0.1-1.4,0.3-2.1c0.2-0.6,0.5-1.1,0.9-1.6c0.4-0.4,0.9-0.8,1.4-1c0.6-0.2,1.2-0.3,1.8-0.3
		c0.8,0,1.6,0.2,2.3,0.6c0.7,0.4,1.2,1,1.6,1.7c0.4,0.8,0.6,1.6,0.6,2.7C94.9,39.4,94.7,40.1,94.5,40.8L94.5,40.8z"/>
	<path class="st0" d="M109.4,32c-1-0.6-2.2-1-3.5-0.9c-1,0-1.9,0.2-2.8,0.5c-1.7,0.7-3.1,2.2-3.7,3.9c-0.3,1-0.5,2.1-0.5,3.1
		c0,1.5,0.3,2.8,0.9,4c0.6,1.1,1.5,2,2.5,2.7c1.1,0.7,2.4,1,3.7,1c0.8,0,1.7-0.1,2.4-0.4c0.8-0.2,1.5-0.6,2.2-1.2
		c0.7-0.6,1.3-1.3,1.7-2.1l-2.2-1.3c-0.3,0.5-0.6,1-1.1,1.5c-0.4,0.4-0.9,0.6-1.4,0.8c-0.5,0.2-1.1,0.2-1.7,0.2
		c-0.8,0-1.5-0.2-2.2-0.6c-0.7-0.4-1.2-1-1.5-1.7c-0.3-0.7-0.5-1.4-0.5-2.2h10.8c0-0.1,0-0.3,0-0.4v-0.4c0-1.5-0.3-2.8-0.9-3.9
		C111.2,33.6,110.4,32.7,109.4,32z M102.9,34.8c0.3-0.4,0.8-0.8,1.3-1c0.5-0.2,1.1-0.3,1.7-0.3c1.1,0,2.1,0.4,2.8,1.3
		c0.5,0.6,0.9,1.4,1,2.5h-7.8c0-0.3,0.1-0.5,0.2-0.8C102.2,35.8,102.5,35.3,102.9,34.8z"/>
	<path class="st0" d="M124.4,31.8c-1.7-1-3.9-0.9-5.6,0.1c-0.6,0.4-1.2,1-1.5,1.7v-2.2h-2.8v14.6h2.8v-8.6c0-1.2,0.3-2.1,1-2.7
		s1.6-1,2.6-1c0.9,0,1.7,0.3,2.3,1c0.6,0.7,0.9,1.5,0.9,2.6v8.7h2.8v-9.2c0-1.1-0.2-2.1-0.7-3C125.9,32.9,125.2,32.2,124.4,31.8z"/>
	<path class="st0" d="M139.3,32c-1-0.6-2.3-1-3.5-0.9c-1,0-1.9,0.2-2.8,0.5c-1.7,0.7-3.1,2.2-3.7,3.9c-0.3,1-0.5,2.1-0.5,3.1
		c0,1.5,0.3,2.8,0.9,4c0.6,1.1,1.4,2,2.5,2.7c1.1,0.7,2.4,1,3.7,1c0.8,0,1.7-0.1,2.4-0.4c0.8-0.2,1.5-0.6,2.2-1.2
		c0.7-0.6,1.3-1.3,1.7-2.1l-2.2-1.3c-0.3,0.5-0.6,1-1.1,1.5c-0.4,0.4-0.9,0.6-1.4,0.8c-0.5,0.2-1.1,0.2-1.7,0.2
		c-0.8,0-1.5-0.2-2.2-0.6c-0.7-0.4-1.2-1-1.5-1.7c-0.3-0.7-0.5-1.4-0.5-2.2h10.8c0-0.1,0-0.3,0-0.4v-0.4c0-1.5-0.3-2.8-0.9-3.9
		C141.2,33.6,140.3,32.7,139.3,32z M132.8,34.8c0.3-0.4,0.8-0.8,1.3-1c0.5-0.2,1.1-0.3,1.7-0.3c1.1,0,2.1,0.4,2.8,1.3
		c0.5,0.6,0.9,1.4,1,2.5h-7.8c0-0.3,0.1-0.5,0.2-0.8C132.1,35.8,132.4,35.3,132.8,34.8L132.8,34.8z"/>
	<path class="st0" d="M148.9,31.8c-0.7,0.4-1.2,1.1-1.6,2v-2.4h-2.8v14.6h2.8v-7.8c0-1.2,0.3-2.2,0.9-3c0.6-0.7,1.5-1.1,2.4-1.1h1.4
		v-3h-0.8C150.4,31.1,149.6,31.3,148.9,31.8z"/>
	<path class="st0" d="M163.4,33.8c-0.1-0.2-0.2-0.4-0.3-0.5c-0.4-0.7-1.1-1.2-1.8-1.6c-0.8-0.4-1.7-0.6-2.6-0.6
		c-0.9,0-1.8,0.2-2.6,0.5c-0.8,0.3-1.5,0.8-2.1,1.5c-0.6,0.6-1.1,1.4-1.4,2.2c-0.3,0.9-0.5,1.8-0.5,2.8c0,1.2,0.3,2.5,0.9,3.5
		c0.5,1,1.3,1.9,2.3,2.5c1,0.6,2.1,0.9,3.3,0.9c1,0,1.9-0.2,2.6-0.6c0.7-0.4,1.3-1,1.8-1.6c0.1-0.2,0.2-0.3,0.3-0.5v2.1
		c0,1-0.2,1.8-0.6,2.4c-0.4,0.6-0.9,1.1-1.6,1.5c-0.7,0.3-1.4,0.5-2.2,0.5c-0.9,0-1.7-0.2-2.5-0.7c-0.8-0.5-1.4-1.1-1.9-1.9l-2,1.6
		c0.4,0.8,1,1.4,1.7,2c0.7,0.5,1.4,0.9,2.2,1.1c0.8,0.2,1.6,0.4,2.4,0.4c1.3,0,2.6-0.3,3.7-0.8c1.1-0.5,2-1.3,2.6-2.4
		c0.6-1,1-2.3,1-3.8V31.4h-2.8V33.8z M162.9,40.2c-0.7,1.3-2.1,2.1-3.6,2.1c-0.8,0-1.5-0.2-2.1-0.6c-0.6-0.4-1.1-0.9-1.5-1.5
		c-0.4-0.7-0.6-1.5-0.5-2.3c0-0.8,0.2-1.6,0.5-2.3c0.4-0.6,0.9-1.2,1.5-1.5c0.7-0.4,1.4-0.6,2.1-0.6c1.5,0,2.9,0.8,3.6,2.1
		c0.4,0.7,0.6,1.5,0.5,2.3C163.4,38.8,163.3,39.6,162.9,40.2L162.9,40.2z"/>
	<path class="st0" d="M171.6,25.7c-0.4-0.3-0.9-0.5-1.4-0.5c-0.5,0-1,0.2-1.4,0.5c-0.4,0.3-0.6,0.8-0.6,1.4c0,0.5,0.2,1,0.6,1.3
		c0.4,0.3,0.9,0.5,1.4,0.5c0.5,0,1-0.2,1.4-0.5c0.4-0.3,0.6-0.8,0.6-1.3C172.2,26.6,171.9,26.1,171.6,25.7z"/>
	<rect x="168.8" y="31.4" class="st0" width="2.8" height="14.6"/>
	<path class="st0" d="M185.7,34.2c-0.3-0.7-0.8-1.3-1.4-1.8c-0.6-0.5-1.3-0.8-2.1-1c-0.8-0.2-1.6-0.3-2.4-0.3
		c-1.2,0-2.5,0.3-3.6,0.9c-1.1,0.6-1.9,1.5-2.3,2.6l2.2,1.3c0.3-0.7,0.7-1.3,1.4-1.7c0.6-0.4,1.4-0.6,2.3-0.6c0.6,0,1.3,0.1,1.9,0.3
		c0.6,0.2,1,0.6,1.4,1.1c0.3,0.5,0.5,1.2,0.5,2v1.6l-0.3-0.3c-0.9-0.8-2.2-1.2-3.9-1.2c-1,0-2,0.2-3,0.5c-0.8,0.3-1.6,0.8-2.1,1.5
		c-0.5,0.7-0.8,1.6-0.8,2.4c0,1,0.2,1.8,0.8,2.4c0.5,0.7,1.2,1.2,2.1,1.5c0.9,0.4,1.9,0.5,2.9,0.5c1.7,0,3-0.4,4-1.2
		c0.2-0.2,0.4-0.3,0.5-0.5v1.5h2.7v-9.1C186.3,36,186.1,35.1,185.7,34.2z M182.5,43.5c-0.7,0.4-1.5,0.6-2.6,0.6s-1.9-0.2-2.6-0.6
		c-0.7-0.4-1-1-1-1.8c0-0.7,0.4-1.4,1-1.8c0.7-0.4,1.6-0.6,2.6-0.6c1,0,1.9,0.2,2.6,0.6c0.7,0.3,1.1,1,1,1.8
		C183.5,42.5,183.2,43.1,182.5,43.5z"/>
	<path class="st1" d="M22.9,38.8c0,2.3,0.9,4.5,2.5,6.2c3.1,3.1,7.4,3.1,10.1,1.6c3.3-1.8,10.8-7.2,3-29.6
		C38.6,27.6,22.9,28.7,22.9,38.8z"/>
	<path class="st2" d="M30.1,26.3c-0.5-2.8-1.3-5.6-2.6-9.3c0,10.6-15.7,11.7-15.7,21.8c0,2.3,0.9,4.5,2.5,6.2
		c3.1,3.1,7.4,3.1,10.1,1.6C18.2,40,20.4,32.3,30.1,26.3z"/>
	<path class="st0" d="M19,26.3c-0.5-2.8-1.3-5.6-2.6-9.3c0,10.6-15.7,11.7-15.7,21.8c0,5.2,4.2,7.5,4.2,7.5
		c-0.6,2.8-0.8,5.7-0.4,8.5l2-0.3c-1-3.4-0.4-7.1-0.3-7.5c2.6,1,5.2,0.7,7.1-0.3C7.1,40,9.3,32.3,19,26.3z"/>
	<rect x="-11.8" y="4.5" class="st3" width="210.6" height="75"/>
</g>
</svg>
